<svg width="154" height="43" viewBox="0 0 154 43" fill="none" xmlns="http://www.w3.org/2000/svg">
<path d="M87.0804 8.85315C86.1384 7.9532 84.8057 7.39185 83.3282 7.39185H74.6706C73.1931 7.39185 71.8604 7.9532 70.9184 8.85315C69.647 10.0674 70.6185 12.073 72.4663 12.073H85.5325C87.3803 12.073 88.3518 10.0674 87.0804 8.85315Z" fill="#FF983B"/>
<path d="M87.0815 8.85167C86.7916 8.57458 86.4644 8.32983 86.1075 8.12354L85.3748 8.89073L86.2478 9.72461C86.4452 9.9132 86.4991 10.1239 86.4081 10.351C86.3087 10.5991 86.0267 10.8643 85.5335 10.8643H70.4995C70.8013 11.543 71.5189 12.0715 72.4674 12.0715H85.5335C87.3813 12.0715 88.3528 10.0659 87.0815 8.85167Z" fill="#FF7E40"/>
<path d="M87.9275 6.89746H70.0742C69.5186 6.89746 69.0682 7.34789 69.0682 7.9036V8.35525C69.0682 8.91081 69.5186 9.36124 70.0742 9.36124H87.9275C88.483 9.36124 88.9335 8.91081 88.9335 8.35525V7.9036C88.9335 7.34789 88.483 6.89746 87.9275 6.89746Z" fill="#F4EEE0"/>
<path d="M84.4985 4.68042H73.5051C71.9162 4.68042 70.4015 5.29839 69.3373 6.38113L69.3328 6.38555C69.1372 6.58452 69.1731 6.89519 69.4096 7.05219L69.4149 7.0557C69.5899 7.1735 69.8307 7.26383 70.1014 7.30365C70.3719 7.34378 70.6678 7.33371 70.9441 7.2649C71.2009 7.20249 71.4223 7.18357 71.6047 7.22812C71.7873 7.27268 71.9213 7.38178 72.0295 7.54657C72.0876 7.63644 72.1618 7.71823 72.2506 7.79406C72.2612 7.80337 72.2741 7.81313 72.2835 7.82183L72.3105 7.84731C72.3288 7.86394 72.3474 7.88012 72.3664 7.89568C72.4042 7.92681 72.4434 7.95626 72.4837 7.9825C72.645 8.08946 72.8241 8.15828 73.0078 8.18849C73.3756 8.24815 73.7608 8.14958 74.0663 7.88393C74.2081 7.7611 74.384 7.70495 74.564 7.72448C74.7439 7.74432 74.9071 7.83801 75.0248 7.98906C75.2791 8.31621 75.6379 8.49778 76.0052 8.5228C76.3726 8.54813 76.7475 8.41661 77.035 8.12731C77.1682 7.99349 77.3402 7.9233 77.521 7.9294C77.7016 7.9352 77.8698 8.01638 77.9958 8.15889C78.2679 8.46665 78.6347 8.62244 79.002 8.62229C79.3692 8.62244 79.7359 8.46665 80.008 8.15889C80.134 8.01638 80.3021 7.9352 80.483 7.9294C80.6636 7.9233 80.8357 7.99349 80.9688 8.12731C81.2564 8.41661 81.6312 8.54813 81.9986 8.5228C82.3658 8.49778 82.7247 8.31621 82.9789 7.98906C83.0967 7.83801 83.2598 7.74432 83.4397 7.72448C83.6198 7.70495 83.7957 7.7611 83.9373 7.88393C84.2429 8.14958 84.6282 8.24815 84.9959 8.18849C85.1798 8.15828 85.3588 8.08946 85.5201 7.9825C85.5604 7.95611 85.5996 7.92681 85.6374 7.89568C85.6563 7.87997 85.6749 7.86379 85.6933 7.84716L85.7204 7.82183C85.7297 7.81298 85.7427 7.80337 85.7532 7.79391C85.8419 7.71823 85.9162 7.63644 85.9743 7.54657C86.0825 7.38178 86.2165 7.27268 86.3991 7.22812C86.5815 7.18357 86.8029 7.20249 87.0597 7.2649C87.336 7.33371 87.6317 7.34363 87.9024 7.30365C88.1731 7.26383 88.4138 7.17335 88.5889 7.05555C88.8283 6.89671 88.8644 6.58239 88.6665 6.38113C87.6021 5.29839 86.0875 4.68042 84.4985 4.68042Z" fill="#28D05B"/>
<path d="M75.3414 5.42062C75.3414 4.60429 73.9372 3.94238 72.2049 3.94238C70.4724 3.94238 69.0682 4.60429 69.0682 5.42062C69.0682 6.2371 70.4724 6.89886 72.2049 6.89886C73.9372 6.89886 75.3414 6.2371 75.3414 5.42062Z" fill="#FF5368"/>
<path d="M82.1377 5.42062C82.1377 4.60429 80.7334 3.94238 79.0011 3.94238C77.2688 3.94238 75.8644 4.60429 75.8644 5.42062C75.8644 6.2371 77.2688 6.89886 79.0011 6.89886C80.7334 6.89886 82.1377 6.2371 82.1377 5.42062Z" fill="#FF5368"/>
<path d="M88.9306 5.42062C88.9306 4.60429 87.5264 3.94238 85.7939 3.94238C84.0616 3.94238 82.6574 4.60429 82.6574 5.42062C82.6574 6.2371 84.0616 6.89886 85.7939 6.89886C87.5264 6.89886 88.9306 6.2371 88.9306 5.42062Z" fill="#FF5368"/>
<path d="M88.3336 1.69186C87.2456 0.649858 85.7061 0 83.9996 0C83.0846 0 82.2176 0.187069 81.4425 0.521076C80.6673 0.187069 79.8004 0 78.8852 0C78.015 0 77.1883 0.169369 76.4426 0.473165C75.6969 0.169369 74.8702 0 73.9999 0C72.2933 0 70.7539 0.649858 69.6658 1.69186C68.1975 3.09793 69.3195 5.42011 71.4538 5.42011H86.5457C88.68 5.42011 89.8021 3.09793 88.3336 1.69186Z" fill="#FF983B"/>
<path d="M81.2397 0.440643C81.2316 0.437439 81.2233 0.434387 81.2152 0.431183C81.0851 0.381135 80.9525 0.334902 80.8178 0.293094C80.8109 0.290958 80.8039 0.288821 80.7969 0.286685C80.6608 0.24503 80.5224 0.207494 80.3821 0.174688C80.3757 0.173162 80.3695 0.171789 80.3631 0.170263L80.3611 0.169805C80.2297 0.139441 80.0899 0.166906 79.9851 0.24503C79.7913 0.389069 79.6078 0.543943 79.4357 0.708734C78.9555 1.16862 78.7524 1.72647 78.7711 2.26891C78.7742 2.27471 78.7768 2.28051 78.7798 2.28631C78.7769 2.28066 78.7742 2.27502 78.7711 2.26937C78.7715 2.27608 78.7718 2.28295 78.7722 2.28997C78.7873 2.53197 79.1538 2.58354 79.2498 2.35741C79.3548 2.11022 79.493 1.85861 79.6648 1.69413C80.1694 1.21089 80.7712 0.812186 81.4415 0.523344C81.3748 0.494811 81.3077 0.467193 81.2397 0.440643Z" fill="#FF7E40"/>
<path d="M76.1896 0.375809C76.1869 0.374893 76.1843 0.373825 76.1817 0.372909C75.8719 0.262591 75.5495 0.174855 75.217 0.112295C75.0896 0.0883392 74.957 0.116873 74.8552 0.190418C74.6358 0.348801 74.4291 0.520916 74.2365 0.705391C73.7403 1.18054 73.54 1.76036 73.5746 2.31989C73.5896 2.56296 73.9524 2.61651 74.052 2.39054C74.161 2.1435 74.3252 1.90638 74.5502 1.69078C75.0832 1.18039 75.7248 0.764441 76.4409 0.472547C76.3581 0.438673 76.2744 0.406173 76.1896 0.375809Z" fill="#FF7E40"/>
<path d="M88.3338 1.69228C88.0459 1.41655 87.7259 1.16845 87.38 0.952393C87.0048 1.43471 87.048 2.13233 87.4989 2.5643C87.861 2.91082 87.8237 3.26527 87.7288 3.50162C87.5907 3.8457 87.2073 4.21343 86.5458 4.21343H69.2769C69.6681 4.9054 70.4488 5.42053 71.454 5.42053H86.5458C88.6802 5.42053 89.8023 3.09834 88.3338 1.69228Z" fill="#FF7E40"/>
<path d="M6.965 10.0868C8.505 10.0868 9.835 10.9618 10.5 12.2218C11.13 13.3768 12.285 14.0768 13.58 14.0768C13.58 10.4368 10.64 7.46178 6.965 7.46178C3.325 7.46178 0.35 10.4368 0.35 14.0768V14.1118C0.35 16.8768 2.1 19.3618 4.725 20.2718L8.365 21.5318C10.185 22.1618 11.305 24.0868 10.885 26.0818C10.465 27.8668 8.855 29.1618 7 29.1968C4.795 29.1968 2.975 27.4118 2.975 25.2068V24.2268H0.35V25.2068C0.35 28.8468 3.325 31.8218 6.965 31.8218C10.64 31.8218 13.615 28.8468 13.58 25.1718C13.58 22.4068 11.795 19.9568 9.17 19.0468L5.565 17.7868C4.025 17.2268 2.975 15.7568 2.975 14.1118V14.0768C2.975 11.8718 4.76 10.0868 6.965 10.0868ZM24.8065 19.1868C23.8265 18.3818 22.5315 17.9268 21.1665 17.9268C17.8765 17.9268 15.2515 20.5518 15.2515 23.8418V25.9068C15.2515 29.1618 17.8765 31.8218 21.1665 31.8218C22.3915 31.8218 23.5115 31.4368 24.4565 30.8068V31.8218H27.0815V23.8418V17.9268C26.1015 17.9268 25.2615 18.4168 24.8065 19.1868ZM24.4565 25.9068C24.4565 27.7268 22.9865 29.2318 21.1665 29.2318C19.3465 29.2318 17.8415 27.7268 17.8415 25.9068V23.8418C17.8415 22.0218 19.3465 20.5168 21.1665 20.5168C22.9865 20.5168 24.4565 22.0218 24.4565 23.8418V25.9068ZM34.3673 17.9618C33.1773 17.9618 32.0923 18.3468 31.1473 18.9768V17.9268C29.7123 17.9268 28.5573 19.0818 28.5573 20.5168V31.8218H31.1473V23.8068C31.1473 21.8818 32.6873 20.5518 34.5423 20.5518C36.2923 20.6218 37.6573 22.0918 37.6573 23.8418V31.8218H40.2823V23.8068C40.2823 20.5168 37.6223 17.9618 34.3673 17.9618ZM53.7482 7.63678C52.3132 7.63678 51.1232 8.79178 51.1232 10.2268V18.9418C50.1782 18.2768 49.0582 17.9268 47.8332 17.9268C44.5782 17.9268 41.9182 20.5518 41.9182 23.8418V25.9068C41.9182 29.1618 44.5782 31.8218 47.8332 31.8218C49.0582 31.8218 50.1782 31.4368 51.1232 30.8068V31.8218H53.7482V7.63678ZM51.1232 25.9068C51.1232 27.7268 49.6532 29.2318 47.8332 29.2318C46.0132 29.2318 44.5432 27.7268 44.5432 25.9068V23.8418C44.5432 22.0218 46.0132 20.5168 47.8332 20.5168C49.6532 20.5168 51.1232 22.0218 51.1232 23.8418V25.9068ZM76.5803 17.8568H73.8153L70.8053 27.5518L67.5853 17.8568C65.9403 17.8568 64.5053 18.9068 64.0503 20.4468L61.8103 27.5518L58.6603 17.8568H55.9303L60.4453 31.8218H63.2103L66.2553 22.0568L69.4053 31.8218H72.2053L76.5803 17.8568ZM80.366 13.7968H77.741V16.4218H80.366V13.7968ZM80.366 17.9268C78.931 17.9268 77.741 19.0818 77.741 20.5168V31.8218C79.176 31.8218 80.366 30.6668 80.366 29.2318C80.366 25.5918 80.366 20.0618 80.366 20.0618V17.9268ZM87.611 29.1968C85.861 29.0918 84.531 27.5868 84.531 25.8368V24.1568C84.531 22.1618 85.861 20.6568 87.611 20.5518C89.256 20.5518 90.691 21.3568 91.041 23.0718H93.701C93.316 20.1668 90.866 17.9268 87.856 17.9268C84.566 17.9268 81.941 20.5518 81.941 23.8418V25.9068C81.941 29.1618 84.566 31.8218 87.856 31.8218C90.866 31.8218 93.316 29.5818 93.701 26.6768H91.041C90.691 28.3918 89.256 29.1968 87.611 29.1968ZM106.862 23.9118C106.862 20.7268 104.412 18.0318 101.227 17.8918C99.9318 17.8918 98.7768 18.1718 97.6918 18.9068V7.63678C96.2568 7.63678 95.1018 8.79178 95.1018 10.2268V31.8218H97.6918V23.7718C97.6918 21.9518 99.1618 20.5168 100.982 20.5168C102.837 20.5168 104.272 22.0218 104.272 23.8768V31.8218H106.862V23.9118Z" fill="#FF983B"/>
<path d="M111.981 25.0318V14.1118C111.981 11.8718 113.766 10.0518 116.006 10.0518C117.931 10.0518 119.541 11.4868 119.891 13.3418H122.551C122.201 9.84178 119.261 7.39178 115.796 7.39178C112.191 7.49678 109.356 10.5418 109.356 14.1468V24.9968C109.356 28.6018 112.261 31.7518 115.936 31.7518C119.366 31.7518 122.201 29.1618 122.551 25.8018H119.891C119.541 27.6568 117.931 29.0918 116.006 29.0918C113.766 29.0918 111.981 27.2718 111.981 25.0318ZM126.476 7.63678C125.041 7.63678 123.886 8.79178 123.886 10.2268V31.8218H126.476V7.63678ZM137.012 25.9418C137.012 28.0418 135.367 29.2318 133.407 29.2318C131.692 29.0918 130.432 27.5868 130.432 25.8718V17.9618C128.962 17.9618 127.807 19.1168 127.807 20.5518V25.9418C127.807 29.1968 130.467 31.8568 133.722 31.8568C136.977 31.8568 139.637 29.1968 139.637 25.9418V17.9618C138.202 17.9618 137.012 19.1168 137.012 20.5518V25.9418ZM147.201 17.9268C145.976 17.9268 144.821 18.2768 143.876 18.9418V10.2268C143.876 8.79178 142.721 7.63678 141.286 7.63678V23.8418V25.9068V31.8218H143.876V30.8068C144.821 31.4368 145.976 31.8218 147.201 31.8218C150.456 31.8218 153.081 29.1618 153.081 25.9068V23.8418C153.081 20.5518 150.456 17.9268 147.201 17.9268ZM150.491 25.9068C150.491 27.7268 149.021 29.2318 147.201 29.2318C145.346 29.2318 143.876 27.7268 143.876 25.9068V23.8418C143.876 22.0218 145.346 20.5168 147.201 20.5168C149.021 20.5168 150.491 22.0218 150.491 23.8418V25.9068Z" fill="#B66652"/>
</svg>
